HIERARCHY
ROOT Hips
{
 OFFSET 0.000000 0.000000 0.000000
 CHANNELS 6 Xposition Yposition Zposition Yrotation Xrotation Zrotation
 JOINT Chest
 {
  OFFSET 0.000000 9.585900 0.002600
  CHANNELS 3 Yrotation Xrotation Zrotation
  JOINT Chest2
  {
   OFFSET 0.000000 9.601200 -0.005300
   CHANNELS 3 Yrotation Xrotation Zrotation
   JOINT Chest3
   {
    OFFSET 0.000000 9.561800 0.000000
    CHANNELS 3 Yrotation Xrotation Zrotation
    JOINT Chest4
    {
     OFFSET 0.000000 9.552100 0.000000
     CHANNELS 3 Yrotation Xrotation Zrotation
     JOINT Neck
     {
      OFFSET 0.000000 14.453000 0.000000
      CHANNELS 3 Yrotation Xrotation Zrotation
      JOINT Head
      {
       OFFSET 0.000000 8.936500 -0.011300
       CHANNELS 3 Yrotation Xrotation Zrotation
       End Site
       {
        OFFSET 0.000000 17.073600 -0.006000
       }
      }
     }
     JOINT RightCollar
     {
      OFFSET -2.921100 9.558500 0.000000
      CHANNELS 3 Yrotation Xrotation Zrotation
      JOINT RightShoulder
      {
       OFFSET -13.519700 0.000000 0.000000
       CHANNELS 3 Yrotation Xrotation Zrotation
       JOINT RightElbow
       {
        OFFSET 0.000000 -29.696600 0.000000
        CHANNELS 3 Yrotation Xrotation Zrotation
        JOINT RightWrist
        {
         OFFSET 0.000000 -24.004700 0.000000
         CHANNELS 3 Yrotation Xrotation Zrotation
         End Site
         {
          OFFSET 0.000000 -17.728500 0.000000
         }
        }
       }
      }
     }
     JOINT LeftCollar
     {
      OFFSET 2.921100 9.558500 0.000000
      CHANNELS 3 Yrotation Xrotation Zrotation
      JOINT LeftShoulder
      {
       OFFSET 13.519700 0.000000 0.000000
       CHANNELS 3 Yrotation Xrotation Zrotation
       JOINT LeftElbow
       {
        OFFSET 0.000000 -29.696600 0.000000
        CHANNELS 3 Yrotation Xrotation Zrotation
        JOINT LeftWrist
        {
         OFFSET 0.000000 -24.004700 0.000000
         CHANNELS 3 Yrotation Xrotation Zrotation
         End Site
         {
          OFFSET 0.000000 -17.728500 0.000000
         }
        }
       }
      }
     }
    }
   }
  }
 }
 JOINT RightHip
 {
  OFFSET -7.771700 -0.012900 -0.001300
  CHANNELS 3 Yrotation Xrotation Zrotation
  JOINT RightKnee
  {
   OFFSET 0.000000 -40.869800 0.001200
   CHANNELS 3 Yrotation Xrotation Zrotation
   JOINT RightAnkle
   {
    OFFSET 0.000000 -39.717900 0.002100
    CHANNELS 3 Yrotation Xrotation Zrotation
    JOINT RightToe
    {
     OFFSET 0.000000 -4.965400 11.033500
     CHANNELS 3 Yrotation Xrotation Zrotation
     End Site
     {
      OFFSET 0.000000 -1.423100 5.872300
     }
    }
   }
  }
 }
 JOINT LeftHip
 {
  OFFSET 7.771700 -0.012900 -0.001300
  CHANNELS 3 Yrotation Xrotation Zrotation
  JOINT LeftKnee
  {
   OFFSET 0.000000 -40.869800 0.001200
   CHANNELS 3 Yrotation Xrotation Zrotation
   JOINT LeftAnkle
   {
    OFFSET 0.000000 -39.717900 0.002100
    CHANNELS 3 Yrotation Xrotation Zrotation
    JOINT LeftToe
    {
     OFFSET 0.000000 -4.965400 11.033500
     CHANNELS 3 Yrotation Xrotation Zrotation
     End Site
     {
      OFFSET 0.000000 -1.423100 5.872300
     }
    }
   }
  }
 }
}
MOTION
Frames: 15
Frame Time: 0.008333
0.000000 85.388000 0.000000 0.000000 -5.767877 0.000000 0.000000 11.653817 0.000000 0.000000 -5.885947 0.000000 0.000000 -0.000000 0.000000 0.000000 -0.000000 0.000000 0.000000 12.528835 0.000000 0.000000 0.711642 0.000000 0.000000 -0.000000 0.000000 0.000000 0.000000 -90.000000 0.000000 -2.309062 0.000000 0.000000 2.309062 0.000000 0.000000 -0.000000 0.000000 0.000000 -0.000000 90.000000 0.000000 -2.309062 0.000000 0.000000 2.309062 0.000000 0.000000 8.520406 0.000000 0.000000 1.905762 0.000000 -0.000000 -4.658285 0.000000 0.000000 -0.000000 0.000000 0.000000 8.520406 0.000000 0.000000 1.905762 0.000000 -0.000000 -4.658285 0.000000 0.000000 -0.000000 0.000000
-38.195250 51.688383 22.911313 178.800962 -27.771600 1.344509 2.700424 22.509123 -2.667911 0.428529 3.194247 -0.405647 0.683126 5.172632 -0.645508 2.272422 18.929984 -2.113605 -0.395277 17.194748 -5.935986 1.031979 -7.604031 -6.349282 10.218540 11.209822 11.604754 19.062845 -8.906126 -35.818034 150.791707 -54.959438 168.024973 -15.312167 -6.779620 36.245458 -9.329381 11.081336 -16.420176 -23.606895 -2.583943 39.933642 -177.766664 -53.155282 -142.486685 20.822743 -9.237440 -37.575724 -9.003510 -55.139621 -0.475817 -60.632728 82.894628 -68.718514 -3.112187 -7.327510 7.864242 0.006359 -0.196416 0.053287 1.785673 -53.133978 -3.366425 41.526907 84.216364 46.398177 -0.369538 -9.290768 -3.199614 0.070277 0.249457 0.035689
-38.203404 51.688648 22.917568 178.820311 -27.767810 1.334537 2.690872 22.493123 -2.664963 0.425233 3.194706 -0.405034 0.683619 5.153996 -0.644028 2.264833 18.936037 -2.113829 -0.300349 17.102295 -5.979814 1.057101 -7.549536 -6.352836 10.207381 11.177891 11.588885 19.052297 -8.889322 -35.810531 150.808155 -54.916828 167.992335 -15.269991 -6.787285 36.071356 -9.396613 10.979048 -16.397675 -23.594073 -2.543355 39.959152 -177.969179 -53.030899 -142.358996 20.926519 -9.350416 -37.592483 -8.952835 -55.134588 -0.498434 -60.547099 82.881972 -68.639022 -3.130683 -7.321596 7.899910 0.013643 -0.190194 0.040618 1.792565 -53.140098 -3.384836 41.465520 84.213268 46.343514 -0.373034 -9.291623 -3.193479 0.072018 0.260644 0.037521
-38.212872 51.689438 22.925181 178.833168 -27.762750 1.326713 2.682765 22.484041 -2.662483 0.426347 3.187927 -0.404768 0.684364 5.145069 -0.642098 2.257967 18.933372 -2.114058 -0.258578 17.088313 -5.995391 1.133031 -7.568438 -6.400205 10.200428 11.148068 11.576305 19.031129 -8.902163 -35.828454 150.855252 -54.907234 167.949431 -15.221270 -6.788519 35.880244 -9.420513 10.948117 -16.389552 -23.636904 -2.540436 40.029990 -178.158516 -52.912899 -142.239118 21.045193 -9.450914 -37.635286 -8.900123 -55.128291 -0.519025 -60.446970 82.863354 -68.546866 -3.120995 -7.332013 7.901641 -0.009206 -0.171793 0.062701 1.806054 -53.146017 -3.402757 41.399180 84.208138 46.283911 -0.379383 -9.295330 -3.187226 0.076196 0.272561 0.040429
-38.227049 51.690504 22.934762 178.865585 -27.751383 1.330833 2.657762 22.461132 -2.679140 0.430357 3.172615 -0.401118 0.671718 5.166875 -0.644106 2.256422 18.905642 -2.107847 -0.246210 17.110889 -6.006928 1.235896 -7.602768 -6.460978 10.193568 11.137738 11.563542 19.025192 -8.946692 -35.863025 150.912966 -54.963677 167.918710 -15.158435 -6.817031 35.671190 -9.456569 10.900744 -16.372461 -23.618918 -2.506860 40.023069 -178.284133 -52.776004 -142.213763 21.172685 -9.546099 -37.698545 -8.871525 -55.137736 -0.559802 -60.347100 82.854189 -68.462046 -3.123248 -7.327610 7.913177 -0.018384 -0.165664 0.072820 1.834103 -53.157950 -3.450024 41.181489 84.196767 46.053188 -0.379244 -9.276614 -3.154853 0.068292 0.275070 0.037512
-38.240779 51.693412 22.942994 178.886714 -27.754444 1.332637 2.650932 22.444968 -2.681369 0.424829 3.175061 -0.400305 0.668185 5.164761 -0.643750 2.252258 18.899444 -2.103565 -0.148553 17.082484 -6.034257 1.257430 -7.574360 -6.472190 10.186016 11.135337 11.554303 19.031409 -8.958439 -35.867110 150.907999 -54.973503 167.924839 -15.081289 -6.834537 35.451617 -9.488016 10.853119 -16.349846 -23.654100 -2.494418 40.092868 -178.459631 -52.707614 -142.079785 21.294675 -9.645567 -37.767931 -8.843262 -55.130705 -0.587822 -60.235936 82.843714 -68.374059 -3.123024 -7.313943 7.944668 -0.032019 -0.168079 0.068851 1.846804 -53.154955 -3.478257 41.097832 84.183203 45.960075 -0.391922 -9.263461 -3.136681 0.072586 0.268718 0.036026
-38.254650 51.696974 22.951779 178.909980 -27.758239 1.330869 2.638939 22.435795 -2.682281 0.417420 3.181697 -0.402066 0.670622 5.154059 -0.640469 2.249338 18.891952 -2.095887 -0.078618 17.078396 -6.051038 1.305321 -7.560681 -6.499204 10.180305 11.129508 11.543040 19.037067 -8.969408 -35.866422 150.860739 -54.957320 167.958228 -14.996785 -6.805896 35.228441 -9.506597 10.836814 -16.344577 -23.698410 -2.497922 40.187125 -178.621806 -52.653950 -141.958749 21.408690 -9.751762 -37.836318 -8.784162 -55.118162 -0.630590 -60.130829 82.824217 -68.282063 -3.130351 -7.298454 7.985262 -0.040011 -0.172423 0.056636 1.855531 -53.149951 -3.502235 41.014748 84.166323 45.865995 -0.403071 -9.253763 -3.119933 0.069593 0.273930 0.039770
-38.265911 51.701404 22.960148 178.939239 -27.768964 1.309059 2.624664 22.436821 -2.666041 0.413500 3.183274 -0.403031 0.680332 5.123871 -0.624173 2.241046 18.881975 -2.075877 -0.033867 17.112703 -6.083827 1.366165 -7.548991 -6.529984 10.170809 11.146513 11.512827 19.034208 -8.962350 -35.850489 150.783585 -54.936893 168.023067 -14.900988 -6.776228 34.999513 -9.525898 10.866543 -16.380113 -23.730990 -2.507292 40.278758 -178.748617 -52.599448 -141.885014 21.511028 -9.861461 -37.900136 -8.757930 -55.095988 -0.650372 -60.067129 82.805635 -68.207975 -3.140663 -7.290767 7.982096 -0.014775 -0.177174 0.050674 1.887730 -53.136852 -3.530032 40.848501 84.153660 45.715857 -0.418230 -9.245153 -3.102872 0.072173 0.276198 0.045028
-38.276495 51.706121 22.968757 178.967177 -27.781781 1.283844 2.607906 22.445586 -2.649692 0.420366 3.171899 -0.396876 0.677631 5.120735 -0.618142 2.234455 18.883892 -2.071399 0.022462 17.123803 -6.090069 1.425524 -7.530974 -6.557192 10.172192 11.139176 11.498175 19.028998 -8.961347 -35.833747 150.687805 -54.911783 168.115127 -14.782849 -6.731903 34.765090 -9.546009 10.832971 -16.370002 -23.736670 -2.495294 40.335998 -178.859534 -52.561532 -141.814602 21.598956 -9.964297 -37.960107 -8.696109 -55.071166 -0.687439 -60.058204 82.778290 -68.167846 -3.162093 -7.276455 7.976524 -0.000156 -0.177738 0.078155 1.896580 -53.122681 -3.537416 40.705464 84.139168 45.577498 -0.428123 -9.232415 -3.085003 0.078699 0.270702 0.042610
-38.290100 51.710217 22.978977 178.983744 -27.787130 1.283723 2.599713 22.436822 -2.645898 0.419214 3.170462 -0.394740 0.675140 5.124315 -0.616608 2.226867 18.891629 -2.076030 0.087850 17.132541 -6.079959 1.485287 -7.507365 -6.582112 10.182186 11.120578 11.495339 19.021147 -8.956392 -35.814617 150.419904 -54.871715 168.380584 -14.711120 -6.645924 34.500294 -9.552651 10.764371 -16.322227 -23.735507 -2.464150 40.355687 -178.964210 -52.557854 -141.703847 21.682816 -10.057958 -38.059069 -8.631651 -55.061021 -0.731738 -59.972105 82.751658 -68.085674 -3.163130 -7.247223 7.994680 -0.001251 -0.187978 0.078866 1.911884 -53.115528 -3.559446 40.613117 84.118452 45.471349 -0.425296 -9.212727 -3.081073 0.063544 0.267574 0.056902
-38.304162 51.714505 22.988835 179.002078 -27.798777 1.289332 2.588419 22.432288 -2.646243 0.418387 3.170984 -0.392384 0.667319 5.136967 -0.624575 2.232688 18.881247 -2.051175 0.107149 17.151126 -6.097631 1.582301 -7.476742 -6.605881 10.186679 11.116661 11.477784 19.007836 -8.946344 -35.797818 150.152370 -54.853560 168.651683 -14.598599 -6.564413 34.249296 -9.559959 10.733422 -16.315486 -23.742148 -2.443931 40.398386 -179.058239 -52.548271 -141.607259 21.726805 -10.132387 -38.137693 -8.601213 -55.048832 -0.769150 -59.821557 82.755672 -67.952635 -3.158803 -7.231348 7.990706 -0.018019 -0.193129 0.089030 1.933939 -53.102346 -3.591668 40.532208 84.096591 45.377180 -0.435860 -9.187413 -3.062899 0.054865 0.261061 0.060871
-38.318492 51.717284 23.001340 179.005472 -27.795893 1.308693 2.588368 22.413065 -2.649380 0.427910 3.157686 -0.370532 0.653083 5.152013 -0.640394 2.239966 18.875186 -2.004514 0.162818 17.193595 -6.130863 1.626448 -7.446997 -6.628942 10.171665 11.134761 11.428119 18.991977 -8.936298 -35.790468 149.892706 -54.840483 168.919460 -14.444561 -6.466791 34.013607 -9.590035 10.737082 -16.369079 -23.735514 -2.438448 40.467036 -179.105922 -52.528224 -141.577439 21.744495 -10.178121 -38.176392 -8.552593 -55.053269 -0.806870 -59.536852 82.774323 -67.707851 -3.173990 -7.199860 8.042482 -0.030747 -0.205212 0.050791 2.000798 -53.104617 -3.646582 40.405126 84.080777 45.246581 -0.453080 -9.158721 -3.046746 0.058895 0.248944 0.065603
-38.328731 51.720721 23.012164 179.022975 -27.808026 1.303938 2.598634 22.395901 -2.604357 0.414884 3.174406 -0.386090 0.657669 5.144901 -0.621488 2.222491 18.890710 -2.007524 0.237531 17.226685 -6.132581 1.669867 -7.415757 -6.651337 10.173894 11.131714 11.405321 18.989469 -8.923973 -35.766928 149.529097 -54.822500 169.286588 -14.270912 -6.336596 33.786764 -9.597373 10.704272 -16.364630 -23.712082 -2.416275 40.491677 -179.022448 -52.575855 -141.695995 21.824449 -10.226914 -38.174561 -8.522310 -55.044031 -0.833285 -59.513829 82.771299 -67.680426 -3.196207 -7.186176 8.047565 -0.019573 -0.207472 0.058372 2.031523 -53.092131 -3.673162 40.288336 84.062929 45.128251 -0.458982 -9.134762 -3.032296 0.051667 0.242638 0.068164
-38.338773 51.725261 23.020677 179.050762 -27.838400 1.300977 2.588329 22.412121 -2.584781 0.413543 3.176431 -0.383966 0.642256 5.155138 -0.638426 2.234849 18.888772 -1.975000 0.293276 17.260361 -6.137657 1.731178 -7.377267 -6.670915 10.177771 11.125506 11.385102 18.975381 -8.909028 -35.737985 149.105388 -54.797824 169.722505 -14.080491 -6.175005 33.573339 -9.601214 10.668462 -16.358932 -23.688869 -2.383906 40.506138 -178.938677 -52.634938 -141.773852 21.876594 -10.259331 -38.210076 -8.493628 -55.016281 -0.874042 -59.499819 82.768871 -67.664734 -3.213215 -7.180782 8.053225 -0.002615 -0.210660 0.055746 2.056585 -53.059714 -3.706608 40.157843 84.048525 44.998038 -0.473263 -9.114129 -3.015233 0.058159 0.236711 0.065386
-38.345917 51.728389 23.031641 179.049526 -27.853142 1.301827 2.611003 22.413945 -2.554970 0.412398 3.178572 -0.381776 0.638112 5.157753 -0.632302 2.230317 18.895885 -1.964896 0.349167 17.299248 -6.138431 1.791549 -7.333259 -6.685781 10.172788 11.123217 11.367145 18.976304 -8.895231 -35.670730 148.562688 -54.760155 170.281657 -13.875152 -5.988496 33.382507 -9.595829 10.620010 -16.301026 -23.674067 -2.347644 40.461805 -178.849007 -52.701938 -141.828613 21.895520 -10.277669 -38.274296 -8.463850 -55.004462 -0.880919 -59.353237 82.786457 -67.532109 -3.248141 -7.165996 8.074530 -0.000255 -0.216905 0.046843 2.097645 -53.042383 -3.728403 40.013282 84.042458 44.866392 -0.484847 -9.103882 -3.011470 0.072870 0.235150 0.066143
